<?xml version="1.0" encoding="UTF-8"?>
<svg xmlns="http://www.w3.org/2000/svg" xmlns:xlink="http://www.w3.org/1999/xlink" width="26px" height="22px" viewBox="0 0 15 30" version="1.1">
<g id="surface1">
<path style=" stroke:none;fill-rule:nonzero;fill:rgb(0%,0%,0%);fill-opacity:1;" d="M 25.386719 14.789062 C 25.121094 14.722656 24.855469 14.789062 24.621094 14.957031 C 23.757812 15.6875 22.761719 16.285156 21.664062 16.683594 C 20.632812 17.082031 19.503906 17.28125 18.308594 17.28125 C 15.617188 17.28125 13.15625 16.1875 11.398438 14.425781 C 9.636719 12.664062 8.539062 10.203125 8.539062 7.515625 C 8.539062 6.382812 8.738281 5.289062 9.070312 4.289062 C 9.4375 3.226562 9.96875 2.265625 10.664062 1.433594 C 10.964844 1.066406 10.898438 0.535156 10.53125 0.238281 C 10.300781 0.0703125 10.035156 0.00390625 9.769531 0.0703125 C 6.945312 0.835938 4.484375 2.53125 2.722656 4.789062 C 1.03125 7.015625 0 9.773438 0 12.796875 C 0 16.417969 1.460938 19.707031 3.855469 22.101562 C 6.246094 24.492188 9.535156 25.953125 13.15625 25.953125 C 16.214844 25.953125 19.039062 24.890625 21.296875 23.128906 C 23.589844 21.335938 25.253906 18.777344 25.949219 15.855469 C 26.117188 15.355469 25.851562 14.890625 25.386719 14.789062 Z M 20.300781 21.734375 C 18.375 23.261719 15.914062 24.195312 13.222656 24.195312 C 10.066406 24.195312 7.210938 22.898438 5.148438 20.835938 C 3.089844 18.777344 1.792969 15.921875 1.792969 12.761719 C 1.792969 10.136719 2.65625 7.746094 4.152344 5.820312 C 5.183594 4.488281 6.480469 3.394531 7.972656 2.628906 C 7.808594 2.996094 7.640625 3.359375 7.507812 3.757812 C 7.078125 4.957031 6.878906 6.21875 6.878906 7.546875 C 6.878906 10.703125 8.171875 13.59375 10.234375 15.652344 C 12.292969 17.714844 15.183594 19.011719 18.339844 19.011719 C 19.738281 19.011719 21.066406 18.777344 22.296875 18.3125 C 22.726562 18.144531 23.160156 17.980469 23.558594 17.78125 C 22.761719 19.308594 21.664062 20.671875 20.300781 21.734375 Z M 20.300781 21.734375 "/>
</g>
</svg>
