<?xml version="1.0" encoding="UTF-8"?>
<svg xmlns="http://www.w3.org/2000/svg" xmlns:xlink="http://www.w3.org/1999/xlink" width="26px" height="26px" viewBox="0 -3 25 30" version="1.1">
<g id="sun">
<path style=" stroke:none;fill-rule:nonzero;fill:rgb(0%,0%,0%);fill-opacity:1;" d="M 6.871094 5.339844 L 5.339844 3.808594 C 4.917969 3.386719 4.230469 3.386719 3.808594 3.808594 C 3.386719 4.230469 3.386719 4.917969 3.808594 5.339844 L 5.339844 6.871094 C 5.550781 7.082031 5.828125 7.1875 6.105469 7.1875 C 6.382812 7.1875 6.660156 7.082031 6.871094 6.871094 C 7.292969 6.449219 7.292969 5.761719 6.871094 5.339844 Z M 6.871094 5.339844 "/>
<path style=" stroke:none;fill-rule:nonzero;fill:rgb(0%,0%,0%);fill-opacity:1;" d="M 3.25 11.917969 L 1.082031 11.917969 C 0.484375 11.917969 0 12.402344 0 13 C 0 13.597656 0.484375 14.082031 1.082031 14.082031 L 3.25 14.082031 C 3.847656 14.082031 4.332031 13.597656 4.332031 13 C 4.332031 12.402344 3.847656 11.917969 3.25 11.917969 Z M 3.25 11.917969 "/>
<path style=" stroke:none;fill-rule:nonzero;fill:rgb(0%,0%,0%);fill-opacity:1;" d="M 6.871094 19.128906 C 6.449219 18.707031 5.761719 18.707031 5.339844 19.128906 L 3.808594 20.660156 C 3.386719 21.082031 3.386719 21.769531 3.808594 22.191406 C 4.019531 22.402344 4.296875 22.507812 4.574219 22.507812 C 4.851562 22.507812 5.128906 22.402344 5.339844 22.191406 L 6.871094 20.660156 C 7.292969 20.238281 7.292969 19.550781 6.871094 19.128906 Z M 6.871094 19.128906 "/>
<path style=" stroke:none;fill-rule:nonzero;fill:rgb(0%,0%,0%);fill-opacity:1;" d="M 13 21.667969 C 12.402344 21.667969 11.917969 22.152344 11.917969 22.75 L 11.917969 24.917969 C 11.917969 25.515625 12.402344 26 13 26 C 13.597656 26 14.082031 25.515625 14.082031 24.917969 L 14.082031 22.75 C 14.082031 22.152344 13.597656 21.667969 13 21.667969 Z M 13 21.667969 "/>
<path style=" stroke:none;fill-rule:nonzero;fill:rgb(0%,0%,0%);fill-opacity:1;" d="M 22.191406 20.660156 L 20.660156 19.128906 C 20.238281 18.707031 19.550781 18.707031 19.128906 19.128906 C 18.707031 19.550781 18.707031 20.238281 19.128906 20.660156 L 20.660156 22.191406 C 20.871094 22.402344 21.148438 22.507812 21.425781 22.507812 C 21.703125 22.507812 21.980469 22.402344 22.191406 22.191406 C 22.613281 21.769531 22.613281 21.082031 22.191406 20.660156 Z M 22.191406 20.660156 "/>
<path style=" stroke:none;fill-rule:nonzero;fill:rgb(0%,0%,0%);fill-opacity:1;" d="M 24.917969 11.917969 L 22.75 11.917969 C 22.152344 11.917969 21.667969 12.402344 21.667969 13 C 21.667969 13.597656 22.152344 14.082031 22.75 14.082031 L 24.917969 14.082031 C 25.515625 14.082031 26 13.597656 26 13 C 26 12.402344 25.515625 11.917969 24.917969 11.917969 Z M 24.917969 11.917969 "/>
<path style=" stroke:none;fill-rule:nonzero;fill:rgb(0%,0%,0%);fill-opacity:1;" d="M 22.191406 3.808594 C 21.769531 3.386719 21.082031 3.386719 20.660156 3.808594 L 19.128906 5.339844 C 18.707031 5.761719 18.707031 6.449219 19.128906 6.871094 C 19.339844 7.082031 19.617188 7.1875 19.894531 7.1875 C 20.171875 7.1875 20.449219 7.082031 20.660156 6.871094 L 22.191406 5.339844 C 22.613281 4.917969 22.613281 4.230469 22.191406 3.808594 Z M 22.191406 3.808594 "/>
<path style=" stroke:none;fill-rule:nonzero;fill:rgb(0%,0%,0%);fill-opacity:1;" d="M 13 0 C 12.402344 0 11.917969 0.484375 11.917969 1.082031 L 11.917969 3.25 C 11.917969 3.847656 12.402344 4.332031 13 4.332031 C 13.597656 4.332031 14.082031 3.847656 14.082031 3.25 L 14.082031 1.082031 C 14.082031 0.484375 13.597656 0 13 0 Z M 13 0 "/>
<path style=" stroke:none;fill-rule:nonzero;fill:rgb(0%,0%,0%);fill-opacity:1;" d="M 13 5.957031 C 9.117188 5.957031 5.957031 9.117188 5.957031 13 C 5.957031 16.882812 9.117188 20.042969 13 20.042969 C 16.882812 20.042969 20.042969 16.882812 20.042969 13 C 20.042969 9.117188 16.882812 5.957031 13 5.957031 Z M 13 17.875 C 10.3125 17.875 8.125 15.6875 8.125 13 C 8.125 10.3125 10.3125 8.125 13 8.125 C 15.6875 8.125 17.875 10.3125 17.875 13 C 17.875 15.6875 15.6875 17.875 13 17.875 Z M 13 17.875 "/>
</g>
</svg>
