<?xml version="1.0" encoding="UTF-8"?>
<svg xmlns="http://www.w3.org/2000/svg" xmlns:xlink="http://www.w3.org/1999/xlink" width="70pt" height="53pt" viewBox="0 0 70 53" version="1.1">
<g id="surface1">
<path style=" stroke:none;fill-rule:nonzero;fill:rgb(0%,51.764706%,57.254902%);fill-opacity:1;" d="M 54.875 20.769531 L 44.09375 20.769531 L 44.09375 22.203125 L 53.425781 22.203125 L 53.425781 22.917969 C 53.441406 33.820312 44.582031 43.003906 32.824219 44.28125 C 21.066406 45.558594 10.132812 38.519531 7.390625 27.914062 C 4.652344 17.308594 10.972656 6.492188 22.09375 2.757812 C 33.21875 -0.980469 45.617188 3.546875 50.9375 13.285156 L 52.339844 12.640625 C 46.671875 2.246094 33.453125 -2.59375 21.582031 1.382812 C 9.714844 5.359375 2.960938 16.890625 5.875 28.207031 C 8.785156 39.523438 20.4375 47.035156 32.984375 45.6875 C 45.527344 44.335938 54.984375 34.546875 54.984375 22.917969 C 54.984375 22.203125 54.945312 21.488281 54.875 20.769531 Z M 54.875 20.769531 "/>
<path style=" stroke:none;fill-rule:nonzero;fill:rgb(24.313725%,90.980392%,98.039216%);fill-opacity:1;" d="M 43.316406 16.808594 L 44.707031 16.164062 C 41.308594 9.894531 33.652344 6.617188 26.253906 8.265625 C 18.855469 9.914062 13.675781 16.046875 13.761719 23.054688 C 13.847656 30.066406 19.183594 36.089844 26.621094 37.582031 C 34.058594 39.070312 41.628906 35.632812 44.871094 29.292969 L 43.464844 28.648438 C 40.539062 34.394531 33.6875 37.515625 26.953125 36.167969 C 20.21875 34.824219 15.386719 29.371094 15.304688 23.027344 C 15.226562 16.679688 19.921875 11.128906 26.621094 9.640625 C 33.320312 8.152344 40.246094 11.128906 43.316406 16.808594 Z M 43.316406 16.808594 "/>
</g>
</svg>
